# 
# Wavefront OBJ file
# Converted by the DEEP Exploration Deep Exploration 6.5 6.5.0.9181
# Right Hemisphere, LTD
# http://www.righthemisphere.com/
# 
mtllib Ecrou_M4.mtl
# object object__5
g object__5
v 1.09625 -0.12422 20.10461
v 1.09625 -0.12422 23.30461
v 0.97286 0.49611 20.10461
v 0.97286 0.49611 23.30461
v 0.62147 1.02200 20.10461
v 0.09558 1.37339 20.10461
v 0.62147 1.02200 23.30461
v 0.09558 1.37339 23.30461
v -0.52475 1.49678 20.10461
v -0.52475 1.49678 23.30461
v 0.97286 -0.74455 23.30461
v 0.62147 -1.27044 23.30461
v 0.97286 -0.74455 20.10461
v 0.62147 -1.27044 20.10461
v 0.09558 -1.62183 23.30461
v 0.09558 -1.62183 20.10461
v -0.52475 -1.74522 23.30461
v -0.52475 -1.74522 20.10461
v -3.64397 -1.69137 20.10461
v -2.02237 -0.74455 20.10461
v -3.17846 -2.39216 20.10461
v -0.04284 3.33339 20.10461
v -0.88482 3.34826 20.10461
v 1.50913 2.71292 20.10461
v -1.82040 -3.36579 20.10461
v -1.14508 -1.62182 20.10461
v -1.00666 -3.58183 20.10461
v 2.87878 0.65139 20.10461
v 2.59447 1.44293 20.10461
v 1.40899 -3.03098 20.10461
v 0.65650 -3.40949 20.10461
v 2.85086 -1.01538 20.10461
v 2.53913 -1.79803 20.10461
v 2.96557 -0.18490 20.10461
v 2.04898 -2.48320 20.10461
v 2.12896 2.14372 20.10461
v -0.16468 -3.59671 20.10461
v 0.77090 3.11735 20.10461
v -1.67097 -1.27045 20.10461
v -2.55863 -2.96136 20.10461
v -1.14508 1.37338 20.10461
v -1.70600 3.16105 20.10461
v -2.45849 2.78253 20.10461
v -1.67097 1.02201 20.10461
v -3.92828 -0.89983 20.10461
v -2.14574 -0.12422 20.10461
v -4.01507 -0.06354 20.10461
v -3.58863 1.54958 20.10461
v -2.02237 0.49611 20.10461
v -3.90036 0.76694 20.10461
v -3.09848 2.23476 20.10461
v -2.14575 -0.12422 23.30461
v -2.02236 -0.74455 23.30461
v -1.67097 -1.27044 23.30461
v -1.14508 -1.62183 23.30461
v -2.02236 0.49611 23.30461
v -1.67097 1.02200 23.30461
v -1.14508 1.37339 23.30461
v -3.64129 -1.69742 23.30461
v -3.17385 -2.39789 23.30461
v -0.05015 3.33417 23.30461
v -0.89136 3.34725 23.30461
v 1.50289 2.71746 23.30461
v -1.81321 -3.36859 23.30461
v -0.99935 -3.58261 23.30461
v 2.87794 0.65683 23.30461
v 2.59179 1.44898 23.30461
v 1.41214 -3.02844 23.30461
v 0.66154 -3.40726 23.30461
v 2.85086 -1.01538 23.30461
v 2.53913 -1.79803 23.30461
v 2.96600 -0.18088 23.30461
v 2.04898 -2.48320 23.30461
v 2.12435 2.14945 23.30461
v -0.15814 -3.59569 23.30461
v 0.76371 3.12015 23.30461
v -2.55239 -2.96590 23.30461
v -1.71104 3.15882 23.30461
v -2.46164 2.78000 23.30461
v -3.92744 -0.90527 23.30461
v -4.01550 -0.06756 23.30461
v -3.58863 1.54958 23.30461
v -3.90036 0.76694 23.30461
v -3.09848 2.23476 23.30461
v -1.70315 3.37578 20.25338
v -2.54548 3.37578 20.42226
v -1.70315 3.37578 23.15584
v 0.65376 3.37578 23.15583
v -0.15448 3.37579 20.14081
v -0.15448 3.37579 23.26841
v -0.89482 3.37579 23.26842
v -0.89482 3.37579 20.14080
v -2.54548 3.37578 22.98696
v 0.65376 3.37578 20.25339
v 1.49598 3.37578 22.98696
v 1.49598 3.37578 20.42226
v -4.04696 0.77512 20.18772
v -4.56620 -0.12422 20.42226
v -4.04696 0.77512 23.22150
v -3.10900 2.39972 23.23474
v -3.10900 2.39972 20.17448
v -3.59714 1.55424 20.11021
v -4.56620 -0.12422 22.98696
v -3.59714 1.55424 23.29901
v 1.91714 2.64630 20.25338
v 1.91714 2.64630 23.15584
v 3.09560 0.60515 23.15583
v 2.69148 1.30512 20.14081
v 2.69148 1.30512 23.26841
v 2.32132 1.94628 23.26842
v 2.32132 1.94628 20.14080
v 3.09560 0.60515 20.25339
v 3.51670 -0.12422 22.98696
v 3.51670 -0.12422 20.42226
v -2.96664 -2.89474 20.25338
v -2.54548 -3.62422 20.42226
v -2.96664 -2.89474 23.15584
v -4.14510 -0.85360 23.15583
v -3.74098 -1.55356 20.14081
v -3.74098 -1.55356 23.26841
v -3.37082 -2.19472 23.26842
v -3.37082 -2.19472 20.14080
v -2.54548 -3.62422 22.98696
v -4.14510 -0.85360 20.25339
v 2.99746 -1.02357 20.18772
v 2.99746 -1.02357 23.22150
v 2.05950 -2.64816 23.23474
v 2.05950 -2.64816 20.17448
v 2.54764 -1.80268 20.11021
v 2.54764 -1.80268 23.29901
v 1.49598 -3.62422 22.98696
v 1.49598 -3.62422 20.42226
v 0.65377 -3.62422 20.25339
v 0.65377 -3.62422 23.15583
v -1.70315 -3.62422 23.15584
v -0.89482 -3.62424 20.14080
v -0.89482 -3.62424 23.26842
v -0.15448 -3.62423 23.26841
v -0.15448 -3.62423 20.14081
v -1.70315 -3.62422 20.25338
# 140 verticies
vt 0.50000 0.00000
vt 0.50000 1.00000
vt 0.62500 0.00000
vt 0.62500 1.00000
vt 0.75000 0.00000
vt 0.87500 0.00000
vt 0.75000 1.00000
vt 0.87500 1.00000
vt 1.00000 0.00000
vt 1.00000 1.00000
vt 0.37500 1.00000
vt 0.25000 1.00000
vt 0.37500 0.00000
vt 0.25000 0.00000
vt 0.12500 1.00000
vt 0.12500 0.00000
vt 0.00000 1.00000
vt 0.00000 0.00000
vt 0.27435 0.94684
vt 0.41068 0.71454
vt 0.17344 0.88015
vt 0.99786 0.43097
vt 0.73341 0.50000
vt 1.00000 0.55158
vt 0.71564 0.41114
vt 0.90852 0.20864
vt 0.66504 0.33580
vt 0.03325 0.68561
vt 0.28436 0.58886
vt 0.00214 0.56903
vt 0.61168 0.01244
vt 0.58932 0.28546
vt 0.72565 0.05316
vt 0.08146 0.22299
vt 0.02696 0.33078
vt 0.28436 0.41114
vt 0.37168 0.01643
vt 0.25899 0.06109
vt 0.41068 0.28546
vt 0.49126 0.00000
vt 0.50000 0.26779
vt 0.16033 0.13131
vt 0.33496 0.33580
vt 0.82656 0.11985
vt 0.26659 0.50000
vt 0.00000 0.44842
vt 0.96675 0.31439
vt 0.33496 0.66420
vt 0.09148 0.79136
vt 0.71564 0.58886
vt 0.97304 0.66922
vt 0.91854 0.77701
vt 0.66504 0.66420
vt 0.38832 0.98756
vt 0.50000 0.73221
vt 0.50874 1.00000
vt 0.74101 0.93891
vt 0.58932 0.71454
vt 0.62832 0.98357
vt 0.83967 0.86869
vt 0.78653 0.03193
vt 1.00000 0.09581
vt 0.78653 0.96806
vt 0.21344 0.96806
vt 0.41175 0.00000
vt 0.40502 1.00000
vt 0.58820 1.00000
vt 0.59493 0.00000
vt 1.00000 0.90419
vt 0.21344 0.03194
vt 0.00000 0.90419
vt 0.00000 0.09581
vt 0.74304 0.02431
vt 1.00000 0.09786
vt 0.74304 0.97569
vt 0.27887 0.97985
vt 0.27887 0.02015
vt 0.52044 0.00000
vt 1.00000 0.90214
vt 0.52044 1.00000
vt 0.00000 0.90214
vt 0.00000 0.09786
vt 0.78656 0.03194
vt 0.78656 0.96806
vt 0.21347 0.96807
vt 0.41180 0.00000
vt 0.40507 1.00000
vt 0.59498 0.00000
vt 0.21347 0.03194
vt 0.42581 0.46834
vt 0.38462 0.00000
vt 0.46154 0.00000
vt 0.53846 0.00000
vt 0.49249 1.00000
vt 0.07692 0.00000
vt 0.07958 0.26164
vt 0.00000 0.01764
vt 0.35914 0.11392
vt 0.30769 0.00000
vt 0.15385 0.00000
vt 0.15915 1.00000
vt 0.22583 0.46838
vt 0.23077 0.00000
vt 0.29249 0.11395
vt 0.69249 0.11395
vt 0.69231 0.00000
vt 0.75915 0.46838
vt 0.61538 0.00000
vt 0.55917 0.46834
vt 0.84615 0.00000
vt 0.91291 0.21996
vt 0.82582 1.00000
vt 0.76923 0.00000
vt 0.92308 0.00000
vt 1.00000 0.01764
vt 0.62584 0.11392
vt 0.75914 0.46834
vt 0.55916 0.46838
vt 0.44083 0.46834
vt 0.50751 1.00000
vt 0.08709 0.21996
vt 0.37416 0.11392
vt 0.17418 1.00000
vt 0.24085 0.46838
vt 0.30751 0.11395
vt 0.70751 0.11395
vt 0.64086 0.11392
vt 0.57419 0.46834
vt 0.92042 0.26164
vt 0.84084 1.00000
vt 0.77417 0.46838
vt 0.44084 0.46838
vt 0.24086 0.46834
# 133 texture verticies
vn -1.00000 0.00000 0.00000
vn -0.92388 -0.38269 0.00000
vn -0.70711 -0.70711 0.00000
vn -0.38269 -0.92388 0.00000
vn 0.00000 -1.00000 0.00000
vn -0.92388 0.38269 0.00000
vn -0.70711 0.70711 0.00000
vn -0.38269 0.92388 0.00000
vn 0.00000 1.00000 0.00000
vn 0.00000 0.00000 -1.00000
vn 1.00000 0.00000 0.00000
vn 0.92388 0.38269 0.00000
vn 0.70711 0.70711 0.00000
vn 0.38269 0.92388 0.00000
vn 0.92388 -0.38269 0.00000
vn 0.70711 -0.70711 0.00000
vn 0.38269 -0.92388 0.00000
vn 0.00000 0.00000 1.00000
vn -0.86602 0.50001 0.00000
vn 0.86602 0.50001 0.00000
vn -0.86602 -0.50001 0.00000
vn 0.86602 -0.50001 0.00000
vn -0.33451 -0.37161 -0.86603
vn -0.37971 -0.32531 -0.86602
vn -0.29081 -0.40672 -0.86603
vn -0.18510 -0.46451 -0.86601
vn -0.25001 -0.43301 -0.86602
vn -0.48341 0.12770 -0.86603
vn -0.48450 0.12370 -0.86600
vn -0.43889 0.23969 -0.86598
vn -0.40452 -0.29382 -0.86605
vn -0.44651 -0.22501 -0.86602
vn -0.49992 0.00830 -0.86603
vn -0.50001 0.00000 -0.86602
vn -0.43882 0.23961 -0.86604
vn -0.48911 -0.10390 -0.86601
vn -0.48741 -0.11150 -0.86602
vn -0.45680 -0.20340 -0.86600
vn 0.05220 -0.49723 -0.86605
vn 0.05200 -0.49731 -0.86601
vn 0.15451 -0.47552 -0.86603
vn -0.06850 -0.49531 -0.86601
vn -0.15451 -0.47552 -0.86603
vn 0.27720 -0.41620 -0.86599
vn 0.35770 -0.34940 -0.86601
vn 0.25001 -0.43301 -0.86602
vn 0.16950 -0.47041 -0.86602
vn 0.36870 -0.33780 -0.86600
vn 0.43892 -0.23981 -0.86593
vn 0.43881 -0.23971 -0.86602
vn -0.05220 -0.49730 -0.86601
vn 0.33451 0.37161 -0.86603
vn 0.37971 0.32531 -0.86602
vn 0.29081 0.40672 -0.86603
vn 0.18510 0.46451 -0.86601
vn 0.25001 0.43301 -0.86602
vn 0.48341 -0.12770 -0.86603
vn 0.48450 -0.12370 -0.86600
vn 0.40452 0.29382 -0.86605
vn 0.44651 0.22501 -0.86602
vn 0.49992 -0.00840 -0.86603
vn 0.50001 0.00000 -0.86602
vn 0.48911 0.10390 -0.86601
vn 0.48741 0.11150 -0.86602
vn 0.45680 0.20340 -0.86600
vn -0.05220 0.49730 -0.86601
vn -0.05200 0.49731 -0.86601
vn -0.15451 0.47552 -0.86603
vn 0.06850 0.49531 -0.86601
vn 0.15451 0.47552 -0.86603
vn -0.27720 0.41620 -0.86599
vn -0.35770 0.34940 -0.86601
vn -0.25001 0.43301 -0.86602
vn -0.16950 0.47041 -0.86602
vn -0.36870 0.33780 -0.86600
vn 0.05230 0.49723 -0.86604
vn -0.15451 -0.47552 0.86603
vn -0.06850 -0.49531 0.86601
vn -0.18510 -0.46451 0.86601
vn -0.29090 -0.40670 0.86601
vn -0.25001 -0.43301 0.86602
vn 0.36870 -0.33780 0.86600
vn 0.35770 -0.34940 0.86601
vn 0.43881 -0.23971 0.86602
vn -0.05220 -0.49730 0.86601
vn 0.05200 -0.49731 0.86601
vn 0.27711 -0.41621 0.86602
vn 0.25001 -0.43301 0.86602
vn 0.43892 -0.23981 0.86593
vn 0.16950 -0.47041 0.86602
vn 0.15451 -0.47552 0.86603
vn 0.05220 -0.49730 0.86601
vn -0.44652 -0.22491 0.86604
vn -0.45680 -0.20340 0.86600
vn -0.40452 -0.29382 0.86605
vn -0.37972 -0.32522 0.86605
vn -0.33460 -0.37160 0.86600
vn -0.49992 0.00840 0.86603
vn -0.48450 0.12370 0.86600
vn -0.50001 0.00000 0.86602
vn -0.48911 -0.10390 0.86601
vn -0.48741 -0.11150 0.86602
vn -0.48341 0.12780 0.86602
vn -0.43861 0.23971 0.86612
vn -0.43869 0.23969 0.86608
vn 0.15451 0.47552 0.86603
vn 0.06850 0.49531 0.86601
vn 0.18510 0.46451 0.86601
vn 0.29090 0.40670 0.86601
vn 0.25001 0.43301 0.86602
vn -0.36861 0.33781 0.86603
vn -0.35770 0.34940 0.86601
vn 0.05230 0.49730 0.86600
vn -0.05200 0.49731 0.86601
vn -0.27711 0.41621 0.86602
vn -0.25001 0.43301 0.86602
vn -0.16950 0.47041 0.86602
vn -0.15451 0.47552 0.86603
vn -0.05220 0.49723 0.86605
vn 0.44660 0.22490 0.86601
vn 0.45680 0.20340 0.86600
vn 0.40452 0.29382 0.86605
vn 0.37972 0.32522 0.86605
vn 0.33460 0.37160 0.86600
vn 0.49992 -0.00840 0.86603
vn 0.48450 -0.12370 0.86600
vn 0.50001 0.00000 0.86602
vn 0.48911 0.10390 0.86601
vn 0.48741 0.11150 0.86602
vn 0.48341 -0.12770 0.86603
# 130 normals
usemtl metal
f  1/1/1 2/2/1 3/3/2
f  4/4/2 5/5/3 3/3/2
f  3/3/2 2/2/1 4/4/2
f  6/6/4 5/5/3 7/7/3
f  4/4/2 7/7/3 5/5/3
f  6/6/4 8/8/4 9/9/5
f  8/8/4 6/6/4 7/7/3
f  9/9/5 8/8/4 10/10/5
f  11/11/6 2/2/1 1/1/1
f  12/12/7 11/11/6 13/13/6
f  1/1/1 13/13/6 11/11/6
f  12/12/7 14/14/7 15/15/8
f  14/14/7 12/12/7 13/13/6
f  16/16/8 17/17/9 15/15/8
f  15/15/8 14/14/7 16/16/8
f  16/16/8 18/18/9 17/17/9
f  19/19/10 20/20/10 21/21/10
f  22/22/10 9/23/10 23/24/10
f  6/25/10 24/26/10 5/27/10
f  25/28/10 26/29/10 27/30/10
f  28/31/10 3/32/10 29/33/10
f  30/34/10 31/35/10 16/36/10
f  32/37/10 33/38/10 13/39/10
f  28/31/10 34/40/10 1/41/10
f  34/40/10 32/37/10 1/41/10
f  35/42/10 30/34/10 14/43/10
f  14/43/10 33/38/10 35/42/10
f  3/32/10 36/44/10 29/33/10
f  18/45/10 16/36/10 37/46/10
f  36/44/10 5/27/10 24/26/10
f  24/26/10 6/25/10 38/47/10
f  27/30/10 18/45/10 37/46/10
f  21/21/10 39/48/10 40/49/10
f  9/23/10 22/22/10 6/25/10
f  23/24/10 41/50/10 42/51/10
f  43/52/10 41/50/10 44/53/10
f  45/54/10 20/20/10 19/19/10
f  46/55/10 45/54/10 47/56/10
f  48/57/10 49/58/10 50/59/10
f  44/53/10 48/57/10 51/60/10
f  22/22/10 38/47/10 6/25/10
f  46/55/10 47/56/10 50/59/10
f  5/27/10 36/44/10 3/32/10
f  3/32/10 28/31/10 1/41/10
f  1/41/10 32/37/10 13/39/10
f  13/39/10 33/38/10 14/43/10
f  14/43/10 30/34/10 16/36/10
f  31/35/10 37/46/10 16/36/10
f  18/45/10 27/30/10 26/29/10
f  26/29/10 40/49/10 39/48/10
f  26/29/10 25/28/10 40/49/10
f  39/48/10 21/21/10 20/20/10
f  20/20/10 45/54/10 46/55/10
f  49/58/10 48/57/10 44/53/10
f  46/55/10 50/59/10 49/58/10
f  51/60/10 43/52/10 44/53/10
f  43/52/10 42/51/10 41/50/10
f  23/24/10 9/23/10 41/50/10
f  46/1/11 52/2/11 20/3/12
f  53/4/12 39/5/13 20/3/12
f  20/3/12 52/2/11 53/4/12
f  26/6/14 39/5/13 54/7/13
f  53/4/12 54/7/13 39/5/13
f  26/6/14 55/8/14 18/9/9
f  55/8/14 26/6/14 54/7/13
f  18/9/9 55/8/14 17/10/9
f  56/11/15 52/2/11 46/1/11
f  57/12/16 56/11/15 49/13/15
f  46/1/11 49/13/15 56/11/15
f  57/12/16 44/14/16 58/15/17
f  44/14/16 57/12/16 49/13/15
f  41/16/17 10/17/5 58/15/17
f  58/15/17 44/14/16 41/16/17
f  41/16/17 9/18/5 10/17/5
f  59/19/18 60/21/18 53/20/18
f  61/22/18 62/24/18 10/23/18
f  8/25/18 7/27/18 63/26/18
f  64/28/18 65/30/18 55/29/18
f  66/31/18 67/33/18 4/32/18
f  68/34/18 15/36/18 69/35/18
f  70/37/18 11/39/18 71/38/18
f  66/31/18 2/41/18 72/40/18
f  72/40/18 2/41/18 70/37/18
f  73/42/18 12/43/18 68/34/18
f  12/43/18 73/42/18 71/38/18
f  4/32/18 67/33/18 74/44/18
f  17/45/18 75/46/18 15/36/18
f  74/44/18 63/26/18 7/27/18
f  63/26/18 76/47/18 8/25/18
f  65/30/18 75/46/18 17/45/18
f  60/21/18 77/49/18 54/48/18
f  10/23/18 8/25/18 61/22/18
f  62/24/18 78/51/18 58/50/18
f  79/52/18 57/53/18 58/50/18
f  80/54/18 59/19/18 53/20/18
f  52/55/18 81/56/18 80/54/18
f  82/57/18 83/59/18 56/58/18
f  57/53/18 84/60/18 82/57/18
f  61/22/18 8/25/18 76/47/18
f  52/55/18 83/59/18 81/56/18
f  7/27/18 4/32/18 74/44/18
f  4/32/18 2/41/18 66/31/18
f  2/41/18 11/39/18 70/37/18
f  11/39/18 12/43/18 71/38/18
f  12/43/18 15/36/18 68/34/18
f  69/35/18 15/36/18 75/46/18
f  17/45/18 55/29/18 65/30/18
f  55/29/18 54/48/18 77/49/18
f  55/29/18 77/49/18 64/28/18
f  54/48/18 53/20/18 60/21/18
f  53/20/18 52/55/18 80/54/18
f  56/58/18 57/53/18 82/57/18
f  52/55/18 56/58/18 83/59/18
f  84/60/18 57/53/18 79/52/18
f  79/52/18 58/50/18 78/51/18
f  62/24/18 58/50/18 10/23/18
f  85/61/9 86/62/9 87/63/9
f  88/64/9 89/65/9 90/66/9
f  85/61/9 91/67/9 92/68/9
f  91/67/9 85/61/9 87/63/9
f  93/69/9 87/63/9 86/62/9
f  90/66/9 92/68/9 91/67/9
f  89/65/9 92/68/9 90/66/9
f  94/70/9 89/65/9 88/64/9
f  94/70/9 95/71/9 96/72/9
f  95/71/9 94/70/9 88/64/9
f  97/73/19 98/74/19 99/75/19
f  100/76/19 101/77/19 102/78/19
f  98/74/19 103/79/19 99/75/19
f  99/75/19 104/80/19 97/73/19
f  104/80/19 102/78/19 97/73/19
f  100/76/19 102/78/19 104/80/19
f  93/81/19 101/77/19 100/76/19
f  93/81/19 86/82/19 101/77/19
f  105/61/20 96/62/20 106/63/20
f  107/64/20 108/65/20 109/66/20
f  105/61/20 110/67/20 111/68/20
f  110/67/20 105/61/20 106/63/20
f  95/69/20 106/63/20 96/62/20
f  109/66/20 111/68/20 110/67/20
f  108/65/20 111/68/20 109/66/20
f  112/70/20 108/65/20 107/64/20
f  112/70/20 113/71/20 114/72/20
f  113/71/20 112/70/20 107/64/20
f  115/61/21 116/62/21 117/63/21
f  118/64/21 119/65/21 120/66/21
f  115/61/21 121/67/21 122/68/21
f  121/67/21 115/61/21 117/63/21
f  123/69/21 117/63/21 116/62/21
f  120/66/21 122/68/21 121/67/21
f  119/65/21 122/68/21 120/66/21
f  124/70/21 119/65/21 118/64/21
f  124/70/21 103/71/21 98/72/21
f  103/71/21 124/70/21 118/64/21
f  125/73/22 114/74/22 126/75/22
f  127/76/22 128/77/22 129/78/22
f  114/74/22 113/79/22 126/75/22
f  126/75/22 130/80/22 125/73/22
f  130/80/22 129/78/22 125/73/22
f  127/76/22 129/78/22 130/80/22
f  131/81/22 128/77/22 127/76/22
f  131/81/22 132/82/22 128/77/22
f  133/83/5 132/62/5 134/84/5
f  135/85/5 136/86/5 137/87/5
f  133/83/5 138/67/5 139/88/5
f  138/67/5 133/83/5 134/84/5
f  131/69/5 134/84/5 132/62/5
f  137/87/5 139/88/5 138/67/5
f  136/86/5 139/88/5 137/87/5
f  140/89/5 136/86/5 135/85/5
f  140/89/5 123/71/5 116/72/5
f  123/71/5 140/89/5 135/85/5
f  115/90/23 21/91/24 40/92/25
f  25/93/26 116/94/27 40/92/25
f  50/95/28 97/96/29 102/97/30
f  122/98/31 19/99/32 21/91/24
f  97/96/29 50/95/28 47/100/33
f  98/101/34 97/96/29 47/100/33
f  50/95/28 102/97/30 48/18/35
f  98/101/34 47/100/33 124/102/36
f  124/102/36 45/103/37 119/104/38
f  45/103/37 124/102/36 47/100/33
f  122/98/31 119/104/38 19/99/32
f  45/103/37 19/99/32 119/104/38
f  115/90/23 40/92/25 116/94/27
f  115/90/23 122/98/31 21/91/24
f  139/105/39 37/106/40 133/107/41
f  25/93/26 27/108/42 140/109/43
f  30/110/44 128/111/45 132/112/46
f  31/113/47 132/112/46 133/107/41
f  35/114/48 33/9/49 129/115/50
f  35/114/48 128/111/45 30/110/44
f  129/115/50 128/111/45 35/114/48
f  30/110/44 132/112/46 31/113/47
f  136/116/51 27/108/42 37/106/40
f  37/106/40 31/113/47 133/107/41
f  37/106/40 139/105/39 136/116/51
f  25/93/26 140/109/43 116/94/27
f  27/108/42 136/116/51 140/109/43
f  105/90/52 36/91/53 24/92/54
f  38/93/55 96/94/56 24/92/54
f  32/95/57 125/96/58 129/97/50
f  111/98/59 29/99/60 36/91/53
f  125/96/58 32/95/57 34/100/61
f  114/101/62 125/96/58 34/100/61
f  32/95/57 129/97/50 33/18/49
f  114/101/62 34/100/61 112/102/63
f  112/102/63 28/103/64 108/104/65
f  28/103/64 112/102/63 34/100/61
f  111/98/59 108/104/65 29/99/60
f  28/103/64 29/99/60 108/104/65
f  105/90/52 24/92/54 96/94/56
f  105/90/52 111/98/59 36/91/53
f  92/105/66 23/106/67 85/117/68
f  38/93/55 22/108/69 94/118/70
f  43/110/71 101/111/72 86/112/73
f  42/113/74 86/112/73 85/117/68
f  51/114/75 48/9/35 102/115/30
f  51/114/75 101/111/72 43/110/71
f  102/115/30 101/111/72 51/114/75
f  43/110/71 86/112/73 42/113/74
f  89/116/76 22/108/69 23/106/67
f  23/106/67 42/113/74 85/117/68
f  23/106/67 92/105/66 89/116/76
f  38/93/55 94/118/70 96/94/56
f  22/108/69 89/116/76 94/118/70
f  135/119/77 65/91/78 64/92/79
f  77/93/80 123/120/81 64/92/79
f  73/95/82 127/121/83 130/97/84
f  137/122/85 75/99/86 65/91/78
f  127/121/83 73/95/82 68/100/87
f  131/123/88 127/121/83 68/100/87
f  73/95/82 130/97/84 71/18/89
f  68/100/87 69/103/90 131/123/88
f  69/103/90 75/99/86 134/124/91
f  134/124/91 131/123/88 69/103/90
f  137/122/85 138/125/92 75/99/86
f  75/99/86 138/125/92 134/124/91
f  135/119/77 64/92/79 123/120/81
f  135/119/77 137/122/85 65/91/78
f  59/106/93 120/126/94 121/127/95
f  77/93/80 60/108/96 117/128/97
f  81/110/98 99/129/99 103/130/100
f  81/110/98 118/131/101 80/113/102
f  83/114/103 82/9/104 104/115/105
f  83/114/103 99/129/99 81/110/98
f  104/115/105 99/129/99 83/114/103
f  103/130/100 118/131/101 81/110/98
f  59/106/93 80/113/102 120/126/94
f  80/113/102 118/131/101 120/126/94
f  59/106/93 121/127/95 60/108/96
f  77/93/80 117/128/97 123/120/81
f  60/108/96 121/127/95 117/128/97
f  88/132/106 61/91/107 76/92/108
f  63/93/109 95/120/110 76/92/108
f  84/95/111 100/121/112 104/97/105
f  90/122/113 62/99/114 61/91/107
f  100/121/112 84/95/111 79/100/115
f  93/123/116 100/121/112 79/100/115
f  84/95/111 104/97/105 82/18/104
f  79/100/115 78/103/117 93/123/116
f  78/103/117 62/99/114 87/133/118
f  87/133/118 93/123/116 78/103/117
f  90/122/113 91/125/119 62/99/114
f  62/99/114 91/125/119 87/133/118
f  88/132/106 76/92/108 95/120/110
f  88/132/106 90/122/113 61/91/107
f  67/106/120 109/126/121 110/127/122
f  63/93/109 74/108/123 106/128/124
f  72/110/125 126/129/126 113/130/127
f  72/110/125 107/131/128 66/113/129
f  70/114/130 71/9/89 130/115/84
f  70/114/130 126/129/126 72/110/125
f  130/115/84 126/129/126 70/114/130
f  113/130/127 107/131/128 72/110/125
f  67/106/120 66/113/129 109/126/121
f  66/113/129 107/131/128 109/126/121
f  67/106/120 110/127/122 74/108/123
f  63/93/109 106/128/124 95/120/110
f  74/108/123 110/127/122 106/128/124
