# 
# Wavefront OBJ file
# Converted by the DEEP Exploration Deep Exploration 6.5 6.5.0.9181
# Right Hemisphere, LTD
# http://www.righthemisphere.com/
# 
mtllib Rondelle_BS_M4.mtl
# object object__5
g object__5
v -4.85493 1.10034 -20.01430
v -4.85493 1.10034 -19.01430
v -3.89479 2.85787 -19.01430
v -4.95742 -0.89972 -20.01430
v -4.95742 -0.89972 -19.01430
v -4.18197 -2.74619 -19.01430
v -4.18197 -2.74619 -20.01430
v -2.68216 -4.07334 -20.01430
v -2.68216 -4.07334 -19.01430
v -3.89479 2.85787 -20.01430
v -2.26717 4.02475 -19.01430
v -2.26717 4.02475 -20.01430
v -0.29445 4.36988 -19.01430
v -0.29445 4.36988 -20.01430
v 1.63266 3.82490 -19.01430
v 1.63266 3.82490 -20.01430
v 3.80543 -1.34878 -20.01430
v 3.80543 -1.34878 -19.01430
v 2.84529 -3.10631 -19.01430
v 3.90792 0.65128 -20.01430
v 3.90792 0.65128 -19.01430
v 3.13247 2.49775 -19.01430
v 3.13247 2.49775 -20.01430
v 2.84529 -3.10631 -20.01430
v 1.21767 -4.27319 -19.01430
v 1.21767 -4.27319 -20.01430
v -0.75505 -4.61832 -19.01430
v -0.75505 -4.61832 -20.01430
v -2.08564 2.43774 -20.01430
v -0.59554 2.87494 -19.01430
v -2.08564 2.43774 -19.01430
v 0.91353 2.50852 -19.01430
v -0.59554 2.87494 -20.01430
v 0.91353 2.50852 -20.01430
v -3.52391 -0.19501 -19.01430
v -3.08671 -1.68511 -19.01430
v -3.08671 -1.68511 -20.01430
v -3.52391 -0.19501 -20.01430
v -3.15750 1.31406 -20.01430
v -3.15750 1.31406 -19.01430
v -1.96302 -2.75697 -19.01430
v -1.96302 -2.75697 -20.01430
v 1.03614 -2.68618 -20.01430
v -0.45396 -3.12339 -19.01430
v 1.03614 -2.68618 -19.01430
v -0.45396 -3.12339 -20.01430
v 2.47441 -0.05343 -19.01430
v 2.03721 1.43667 -19.01430
v 2.03721 1.43667 -20.01430
v 2.47441 -0.05343 -20.01430
v 2.10800 -1.56250 -20.01430
v 2.10800 -1.56250 -19.01430
# 52 verticies
vt 0.42857 1.00000
vt 0.42857 0.00000
vt 0.57143 0.00000
vt 0.28571 1.00000
vt 0.28571 0.00000
vt 0.14286 0.00000
vt 0.14286 1.00000
vt 0.00000 1.00000
vt 0.00000 0.00000
vt 0.57143 1.00000
vt 0.71429 0.00000
vt 0.71429 1.00000
vt 0.85714 0.00000
vt 0.85714 1.00000
vt 1.00000 0.00000
vt 1.00000 1.00000
vt 0.66667 1.00000
vt 0.83333 0.00000
vt 0.66667 0.00000
vt 0.83333 1.00000
vt 0.33333 0.00000
vt 0.16667 0.00000
vt 0.16667 1.00000
vt 0.33333 1.00000
vt 0.50000 1.00000
vt 0.50000 0.00000
vt 0.01156 0.36376
vt 0.11986 0.16822
vt 0.20303 0.33998
vt 0.52598 0.00000
vt 0.66224 0.20709
vt 0.49202 0.16632
vt 0.30346 0.03840
vt 0.32393 0.21496
vt 1.00000 0.41372
vt 0.83830 0.49212
vt 0.78899 0.32634
vt 0.74335 0.06063
vt 0.79697 0.66002
vt 0.98844 0.63624
vt 0.88014 0.83178
vt 0.00000 0.58628
vt 0.16170 0.50788
vt 0.21101 0.67366
vt 0.69654 0.96160
vt 0.67607 0.78504
vt 0.33776 0.79291
vt 0.08747 0.79171
vt 0.91253 0.20829
vt 0.25665 0.93937
vt 0.47402 1.00000
vt 0.50798 0.83368
# 52 texture verticies
vn -0.96227 0.27209 0.00000
vn -0.74889 0.66269 0.00000
vn -0.98504 -0.17231 0.00000
vn -0.81269 -0.58269 0.00000
vn -0.47940 -0.87760 0.00000
vn -0.38720 0.92200 0.00000
vn 0.05120 0.99869 0.00000
vn 0.47940 0.87760 0.00000
vn 0.96227 -0.27209 0.00000
vn 0.74889 -0.66269 0.00000
vn 0.98504 0.17231 0.00000
vn 0.81269 0.58269 0.00000
vn 0.38720 -0.92200 0.00000
vn -0.05120 -0.99869 0.00000
vn 0.52029 -0.85399 0.00000
vn 0.02360 -0.99972 0.00000
vn 0.99972 0.02360 0.00000
vn 0.85399 0.52029 0.00000
vn 0.87760 -0.47940 0.00000
vn -0.52029 0.85399 0.00000
vn -0.02360 0.99972 0.00000
vn -0.99972 -0.02360 0.00000
vn -0.85399 -0.52029 0.00000
vn -0.87760 0.47940 0.00000
vn 0.00000 0.00000 -1.00000
vn 0.00000 0.00000 1.00000
# 26 normals
usemtl metal
f  1/1/1 2/2/1 3/3/2
f  2/2/1 4/4/3 5/5/3
f  4/4/3 2/2/1 1/1/1
f  6/6/4 5/5/3 7/7/4
f  4/4/3 7/7/4 5/5/3
f  8/8/5 9/9/5 6/6/4
f  6/6/4 7/7/4 8/8/5
f  1/1/1 3/3/2 10/10/2
f  11/11/6 12/12/6 10/10/2
f  10/10/2 3/3/2 11/11/6
f  12/12/6 13/13/7 14/14/7
f  13/13/7 12/12/6 11/11/6
f  13/13/7 15/15/8 14/14/7
f  14/14/7 15/15/8 16/16/8
f  17/1/9 18/2/9 19/3/10
f  18/2/9 20/4/11 21/5/11
f  20/4/11 18/2/9 17/1/9
f  22/6/12 21/5/11 23/7/12
f  20/4/11 23/7/12 21/5/11
f  16/8/8 15/9/8 22/6/12
f  22/6/12 23/7/12 16/8/8
f  17/1/9 19/3/10 24/10/10
f  25/11/13 26/12/13 24/10/10
f  24/10/10 19/3/10 25/11/13
f  26/12/13 27/13/14 28/14/14
f  27/13/14 26/12/13 25/11/13
f  27/13/14 9/15/5 28/14/14
f  28/14/14 9/15/5 8/16/5
f  29/17/15 30/18/16 31/19/15
f  32/15/5 33/20/16 34/16/5
f  35/21/17 36/22/18 37/23/18
f  38/24/17 39/25/19 40/26/19
f  41/9/8 42/8/8 36/22/18
f  37/23/18 36/22/18 42/8/8
f  40/26/19 35/21/17 38/24/17
f  35/21/17 37/23/18 38/24/17
f  39/25/19 29/17/15 31/19/15
f  40/26/19 39/25/19 31/19/15
f  33/20/16 32/15/5 30/18/16
f  29/17/15 33/20/16 30/18/16
f  43/17/20 44/18/21 45/19/20
f  41/15/8 46/20/21 42/16/8
f  47/21/22 48/22/23 49/23/23
f  50/24/22 51/25/24 52/26/24
f  32/9/5 34/8/5 48/22/23
f  49/23/23 48/22/23 34/8/5
f  52/26/24 47/21/22 50/24/22
f  47/21/22 49/23/23 50/24/22
f  51/25/24 43/17/20 45/19/20
f  52/26/24 51/25/24 45/19/20
f  46/20/21 41/15/8 44/18/21
f  43/17/20 46/20/21 44/18/21
f  17/27/25 24/28/25 51/29/25
f  28/30/25 42/31/25 46/32/25
f  26/33/25 28/30/25 46/32/25
f  26/33/25 43/34/25 24/28/25
f  4/35/25 38/36/25 37/37/25
f  42/31/25 28/30/25 8/38/25
f  39/39/25 1/40/25 10/41/25
f  20/42/25 50/43/25 49/44/25
f  12/45/25 29/46/25 10/41/25
f  49/44/25 34/47/25 23/48/25
f  50/43/25 20/42/25 17/27/25
f  8/38/25 7/49/25 42/31/25
f  38/36/25 4/35/25 1/40/25
f  26/33/25 46/32/25 43/34/25
f  24/28/25 43/34/25 51/29/25
f  17/27/25 51/29/25 50/43/25
f  20/42/25 49/44/25 23/48/25
f  23/48/25 34/47/25 16/50/25
f  14/51/25 34/47/25 33/52/25
f  16/50/25 34/47/25 14/51/25
f  12/45/25 33/52/25 29/46/25
f  14/51/25 33/52/25 12/45/25
f  10/41/25 29/46/25 39/39/25
f  1/40/25 39/39/25 38/36/25
f  4/35/25 37/37/25 7/49/25
f  42/31/25 7/49/25 37/37/25
f  18/27/26 52/29/26 19/28/26
f  27/30/26 44/32/26 41/31/26
f  25/33/26 44/32/26 27/30/26
f  25/33/26 19/28/26 45/34/26
f  5/35/26 36/37/26 35/36/26
f  41/31/26 9/38/26 27/30/26
f  40/39/26 3/41/26 2/40/26
f  21/42/26 48/44/26 47/43/26
f  11/45/26 3/41/26 31/46/26
f  48/44/26 22/48/26 32/47/26
f  47/43/26 18/27/26 21/42/26
f  9/38/26 41/31/26 6/49/26
f  35/36/26 2/40/26 5/35/26
f  25/33/26 45/34/26 44/32/26
f  19/28/26 52/29/26 45/34/26
f  18/27/26 47/43/26 52/29/26
f  21/42/26 22/48/26 48/44/26
f  22/48/26 15/50/26 32/47/26
f  13/51/26 30/52/26 32/47/26
f  15/50/26 13/51/26 32/47/26
f  11/45/26 31/46/26 30/52/26
f  13/51/26 11/45/26 30/52/26
f  3/41/26 40/39/26 31/46/26
f  2/40/26 35/36/26 40/39/26
f  5/35/26 6/49/26 36/37/26
f  41/31/26 36/37/26 6/49/26
# object object__6
g object__6
v -2.55234 0.94479 -18.71430
v -3.15748 1.31405 -19.01430
v -2.81273 -0.21097 -18.71430
v -2.49574 -1.30743 -18.71430
v -3.52392 -0.19500 -19.01430
v -3.08670 -1.68510 -19.01430
v -1.62743 -2.14266 -18.71430
v -1.96302 -2.75697 -19.01430
v -1.74248 1.82209 -18.71430
v -2.08565 2.43774 -19.01430
v -0.59554 2.87494 -19.01430
v -0.59405 2.17360 -18.71430
v 0.91353 2.50852 -19.01430
v 0.57793 1.89422 -18.71430
v 1.50284 -1.19323 -18.71430
v 2.10798 -1.56249 -19.01430
v 1.76323 -0.03748 -18.71430
v 1.44624 1.05899 -18.71430
v 2.47442 -0.05344 -19.01430
v 2.03720 1.43666 -19.01430
v 0.69298 -2.07053 -18.71430
v 1.03615 -2.68618 -19.01430
v -0.45396 -3.12338 -19.01430
v -0.45545 -2.42204 -18.71430
v -1.68796 1.84792 -20.31430
v -0.59405 2.17360 -20.31430
v 0.57793 1.89422 -20.31430
v -2.49574 -1.30743 -20.31430
v -2.82045 -0.15113 -20.31430
v -2.51980 1.00435 -20.31430
v -1.62743 -2.14266 -20.31430
v 0.63846 -2.09636 -20.31430
v -0.45545 -2.42204 -20.31430
v 1.44624 1.05899 -20.31430
v 1.77095 -0.09731 -20.31430
v 1.47030 -1.25279 -20.31430
v -3.52392 -0.19500 -20.01430
v 0.91353 2.50852 -20.01430
v -0.59554 2.87494 -20.01430
v -1.96302 -2.75697 -20.01430
v -3.08670 -1.68510 -20.01430
v -3.15748 1.31405 -20.01430
v -2.08565 2.43774 -20.01430
v 2.47442 -0.05344 -20.01430
v -0.45396 -3.12338 -20.01430
v 2.03720 1.43666 -20.01430
v 2.10798 -1.56249 -20.01430
v 1.03615 -2.68618 -20.01430
# 48 verticies
vt 0.50000 0.00000
vt 0.50000 1.00000
vt 0.33333 0.00000
vt 0.16667 0.00000
vt 0.33333 1.00000
vt 0.16667 1.00000
vt 0.00000 0.00000
vt 0.00000 1.00000
vt 0.66667 0.00000
vt 0.66667 1.00000
vt 0.83333 1.00000
vt 0.83333 0.00000
vt 1.00000 1.00000
vt 1.00000 0.00000
# 14 texture verticies
vn -0.34572 0.18881 0.91915
vn -0.34571 0.18891 0.91913
vn -0.39378 -0.00930 0.91916
vn -0.33639 -0.20489 0.91916
vn -0.33628 -0.20509 0.91916
vn -0.18879 -0.34569 0.91916
vn -0.18870 -0.34560 0.91921
vn -0.20491 0.33642 0.91915
vn -0.20489 0.33639 0.91916
vn -0.00930 0.39382 0.91914
vn 0.18891 0.34571 0.91913
vn 0.34572 -0.18881 0.91915
vn 0.34571 -0.18891 0.91913
vn 0.39382 0.00930 0.91914
vn 0.33639 0.20489 0.91916
vn 0.39378 0.00930 0.91916
vn 0.33619 0.20519 0.91917
vn 0.20491 -0.33642 0.91915
vn 0.20489 -0.33639 0.91916
vn 0.00930 -0.39378 0.91916
vn 0.00930 -0.39382 0.91914
vn 0.52029 -0.85399 0.00000
vn 0.02360 -0.99972 0.00000
vn 0.52022 -0.85403 0.00000
vn -0.47940 -0.87760 0.00000
vn 0.99972 0.02370 0.00000
vn 0.85399 0.52029 0.00000
vn 0.99972 0.02360 0.00000
vn 0.87760 -0.47940 0.00000
vn 0.47940 0.87760 0.00000
vn -0.52029 0.85399 0.00000
vn -0.02360 0.99972 0.00000
vn -0.99972 -0.02360 0.00000
vn -0.85399 -0.52029 0.00000
vn -0.87760 0.47940 0.00000
vn -0.39378 -0.00930 -0.91916
vn -0.34571 0.18891 -0.91913
vn -0.39382 -0.00930 -0.91914
vn 0.18880 0.34581 -0.91911
vn 0.18881 0.34572 -0.91915
vn -0.00920 0.39378 -0.91916
vn -0.33641 -0.20501 -0.91913
vn -0.18881 -0.34572 -0.91915
vn -0.33630 -0.20490 -0.91920
vn -0.18900 -0.34550 -0.91919
vn -0.20491 0.33642 -0.91915
vn -0.20501 0.33641 -0.91913
vn -0.00930 0.39382 -0.91914
vn 0.39378 0.00930 -0.91916
vn 0.34571 -0.18891 -0.91913
vn 0.39382 0.00930 -0.91914
vn 0.00920 -0.39378 -0.91916
vn 0.33641 0.20501 -0.91913
vn 0.33630 0.20490 -0.91920
vn 0.20491 -0.33642 -0.91915
vn 0.00930 -0.39382 -0.91914
# 56 normals
f  53/53/27 54/54/28 55/55/29
f  56/56/30 55/55/29 57/57/29
f  54/54/28 57/57/29 55/55/29
f  58/58/31 59/59/32 56/56/30
f  56/56/30 57/57/29 58/58/31
f  60/60/33 59/59/32 58/58/31
f  53/53/27 61/61/34 62/62/35
f  62/62/35 54/54/28 53/53/27
f  63/63/36 61/61/34 64/64/36
f  61/61/34 63/63/36 62/62/35
f  63/63/36 64/64/36 65/65/37
f  65/65/37 64/64/36 66/66/37
f  67/53/38 68/54/39 69/55/40
f  70/56/41 69/55/40 71/57/42
f  68/54/39 71/57/42 69/55/40
f  72/58/43 66/59/37 70/56/41
f  70/56/41 71/57/42 72/58/43
f  65/60/37 66/59/37 72/58/43
f  67/53/38 73/61/44 74/62/45
f  74/62/45 68/54/39 67/53/38
f  75/63/46 73/61/44 76/64/47
f  73/61/44 75/63/46 74/62/45
f  75/63/46 76/64/47 60/65/33
f  60/65/33 76/64/47 59/66/32
f  77/62/48 64/64/49 61/61/50
f  66/66/51 78/63/49 79/65/51
f  55/55/52 56/56/53 80/58/53
f  81/57/54 82/54/55 53/53/55
f  59/59/56 83/60/56 56/56/53
f  80/58/53 56/56/53 83/60/56
f  80/58/53 81/57/54 55/55/52
f  53/53/55 55/55/52 81/57/54
f  78/63/49 66/66/51 64/64/49
f  61/61/50 53/53/55 82/54/55
f  64/64/49 77/62/48 78/63/49
f  82/54/55 77/62/48 61/61/50
f  84/62/57 76/64/58 73/61/57
f  59/66/56 85/63/58 83/65/56
f  69/55/59 70/56/60 86/58/60
f  87/57/59 88/54/61 67/53/61
f  66/59/51 79/60/51 70/56/60
f  86/58/60 70/56/60 79/60/51
f  86/58/60 87/57/59 69/55/59
f  67/53/61 69/55/59 87/57/59
f  85/63/58 59/66/56 76/64/58
f  73/61/57 67/53/61 88/54/61
f  76/64/58 84/62/57 85/63/58
f  88/54/61 84/62/57 73/61/57
f  89/62/62 82/53/63 81/61/64
f  90/60/65 79/59/66 91/58/67
f  80/64/68 92/65/69 93/63/70
f  80/64/68 93/63/70 81/61/64
f  93/63/70 89/62/62 81/61/64
f  83/66/71 92/65/69 80/64/68
f  89/62/62 94/54/63 82/53/63
f  94/54/63 95/57/72 77/55/73
f  77/55/73 82/53/63 94/54/63
f  78/56/74 95/57/72 91/58/67
f  95/57/72 78/56/74 77/55/73
f  78/56/74 91/58/67 79/59/66
f  96/62/75 88/53/76 87/61/77
f  92/60/69 83/59/71 97/58/78
f  86/64/79 90/65/65 98/63/80
f  86/64/79 98/63/80 87/61/77
f  98/63/80 96/62/75 87/61/77
f  79/66/66 90/65/65 86/64/79
f  96/62/75 99/54/76 88/53/76
f  99/54/76 100/57/81 84/55/81
f  84/55/81 88/53/76 99/54/76
f  85/56/82 100/57/81 97/58/78
f  100/57/81 85/56/82 84/55/81
f  85/56/82 97/58/78 83/59/71
f  94/54/61 89/57/59 54/53/61
f  57/55/59 89/57/59 93/58/60
f  89/57/59 57/55/59 54/53/61
f  92/60/51 58/56/60 93/58/60
f  57/55/59 93/58/60 58/56/60
f  60/59/51 58/56/60 92/60/51
f  62/61/57 94/54/61 54/53/61
f  62/61/57 63/64/58 95/62/57
f  95/62/57 94/54/61 62/61/57
f  91/63/58 63/64/58 65/66/56
f  63/64/58 91/63/58 95/62/57
f  91/63/58 65/66/56 90/65/56
f  99/54/55 96/57/54 68/53/55
f  71/55/54 96/57/54 98/58/53
f  96/57/54 71/55/54 68/53/55
f  90/60/56 72/56/53 98/58/53
f  71/55/54 98/58/53 72/56/53
f  65/59/56 72/56/53 90/60/56
f  74/61/48 99/54/55 68/53/55
f  74/61/48 75/64/49 100/62/48
f  100/62/48 99/54/55 74/61/48
f  97/63/49 75/64/49 60/66/51
f  75/64/49 97/63/49 100/62/48
f  97/63/49 60/66/51 92/65/51
